<svg width="50" height="50" viewBox="0 0 50 50" fill="none" xmlns="http://www.w3.org/2000/svg">
<circle cx="25" cy="25" r="25" fill="#452820"/>
<path d="M34.9999 29.9201V32.9201C35.0011 33.1986 34.944 33.4743 34.8324 33.7294C34.7209 33.9846 34.5572 34.2137 34.352 34.402C34.1468 34.5902 33.9045 34.7336 33.6407 34.8228C33.3769 34.912 33.0973 34.9452 32.8199 34.9201C29.7428 34.5857 26.7869 33.5342 24.1899 31.8501C21.7738 30.3148 19.7253 28.2663 18.1899 25.8501C16.4999 23.2413 15.4482 20.2711 15.1199 17.1801C15.0949 16.9036 15.1278 16.6249 15.2164 16.3617C15.3051 16.0986 15.4475 15.8568 15.6347 15.6517C15.8219 15.4466 16.0497 15.2828 16.3037 15.1706C16.5577 15.0584 16.8323 15.0004 17.1099 15.0001H20.1099C20.5952 14.9953 21.0657 15.1672 21.4337 15.4836C21.8017 15.8001 22.042 16.2395 22.1099 16.7201C22.2366 17.6802 22.4714 18.6228 22.8099 19.5301C22.9445 19.888 22.9736 20.277 22.8938 20.651C22.8141 21.0249 22.6288 21.3682 22.3599 21.6401L21.0899 22.9101C22.5135 25.4136 24.5864 27.4865 27.0899 28.9101L28.3599 27.6401C28.6318 27.3712 28.9751 27.1859 29.3491 27.1062C29.723 27.0264 30.112 27.0556 30.4699 27.1901C31.3772 27.5286 32.3199 27.7635 33.2799 27.8901C33.7657 27.9586 34.2093 28.2033 34.5265 28.5776C34.8436 28.9519 35.0121 29.4297 34.9999 29.9201Z" stroke="white" stroke-width="2" stroke-linecap="round" stroke-linejoin="round"/>
</svg>
