<svg width="203" height="42" viewBox="0 0 203 42" fill="none" xmlns="http://www.w3.org/2000/svg">
<ellipse cx="128.541" cy="20" rx="20.3652" ry="20" fill="white"/>
<path d="M133.292 16.333C134.98 16.333 136.599 16.9915 137.793 18.1636C138.986 19.3357 139.657 20.9254 139.657 22.583V29.8747H135.414V22.583C135.414 22.0305 135.19 21.5006 134.792 21.1099C134.395 20.7192 133.855 20.4997 133.292 20.4997C132.73 20.4997 132.19 20.7192 131.792 21.1099C131.395 21.5006 131.171 22.0305 131.171 22.583V29.8747H126.928V22.583C126.928 20.9254 127.599 19.3357 128.792 18.1636C129.986 16.9915 131.605 16.333 133.292 16.333V16.333Z" stroke="#452820" stroke-width="2" stroke-linecap="round" stroke-linejoin="round"/>
<path d="M122.686 17.375H118.443V29.875H122.686V17.375Z" stroke="#452820" stroke-width="2" stroke-linecap="round" stroke-linejoin="round"/>
<path d="M120.564 14.2497C121.736 14.2497 122.686 13.3169 122.686 12.1663C122.686 11.0157 121.736 10.083 120.564 10.083C119.393 10.083 118.443 11.0157 118.443 12.1663C118.443 13.3169 119.393 14.2497 120.564 14.2497Z" stroke="#452820" stroke-width="2" stroke-linecap="round" stroke-linejoin="round"/>
<ellipse cx="74.5728" cy="20" rx="20.3652" ry="20" fill="white"/>
<path d="M80.3855 10.083H69.7786C66.8496 10.083 64.4752 12.4149 64.4752 15.2913V25.708C64.4752 28.5845 66.8496 30.9163 69.7786 30.9163H80.3855C83.3145 30.9163 85.6889 28.5845 85.6889 25.708V15.2913C85.6889 12.4149 83.3145 10.083 80.3855 10.083Z" stroke="#452820" stroke-width="2" stroke-linecap="round" stroke-linejoin="round"/>
<path d="M79.3249 19.8436C79.4558 20.7105 79.305 21.5959 78.894 22.3738C78.4829 23.1517 77.8326 23.7825 77.0355 24.1766C76.2384 24.5706 75.335 24.7077 74.454 24.5685C73.5729 24.4293 72.759 24.0207 72.1279 23.401C71.4969 22.7813 71.0809 21.982 70.9391 21.1167C70.7974 20.2514 70.937 19.3643 71.3382 18.5815C71.7395 17.7986 72.3818 17.16 73.1739 16.7563C73.966 16.3527 74.8676 16.2046 75.7503 16.3332C76.6508 16.4643 77.4844 16.8764 78.1281 17.5085C78.7717 18.1406 79.1913 18.9593 79.3249 19.8436Z" stroke="#452820" stroke-width="2" stroke-linecap="round" stroke-linejoin="round"/>
<path d="M80.9159 14.7705H80.9259" stroke="#452820" stroke-width="2" stroke-linecap="round" stroke-linejoin="round"/>
<ellipse cx="182.508" cy="20" rx="20.3652" ry="20" fill="white"/>
<path d="M174.532 12.167H191.503C192.67 12.167 193.624 13.1045 193.624 14.2503V26.7503C193.624 27.8962 192.67 28.8337 191.503 28.8337H174.532C173.365 28.8337 172.41 27.8962 172.41 26.7503V14.2503C172.41 13.1045 173.365 12.167 174.532 12.167Z" stroke="#452820" stroke-width="2" stroke-linecap="round" stroke-linejoin="round"/>
<path d="M193.624 14.25L183.017 21.5417L172.41 14.25" stroke="#452820" stroke-width="2" stroke-linecap="round" stroke-linejoin="round"/>
<ellipse cx="20.6052" cy="22" rx="20.3652" ry="20" fill="white"/>
<path d="M27.4786 12.083H24.2965C22.89 12.083 21.541 12.6317 20.5464 13.6085C19.5518 14.5852 18.9931 15.91 18.9931 17.2913V20.4163H15.811V24.583H18.9931V32.9163H23.2358V24.583H26.4179L27.4786 20.4163H23.2358V17.2913C23.2358 17.0151 23.3476 16.7501 23.5465 16.5548C23.7454 16.3594 24.0152 16.2497 24.2965 16.2497H27.4786V12.083Z" stroke="#452820" stroke-width="2" stroke-linecap="round" stroke-linejoin="round"/>
</svg>
