<svg width="98" height="100" viewBox="0 0 98 100" fill="none" xmlns="http://www.w3.org/2000/svg">
<ellipse cx="49" cy="49.9407" rx="49" ry="49.3723" fill="#EFE6E0"/>
<path d="M53.9167 22.1479H32.25C30.8134 22.1479 29.4357 22.723 28.4198 23.7465C27.404 24.77 26.8333 26.1583 26.8333 27.6058V71.2684C26.8333 72.7159 27.404 74.1041 28.4198 75.1276C29.4357 76.1512 30.8134 76.7262 32.25 76.7262H64.75C66.1866 76.7262 67.5644 76.1512 68.5802 75.1276C69.596 74.1041 70.1667 72.7159 70.1667 71.2684V38.5214L53.9167 22.1479Z" stroke="#AB978A" stroke-width="2" stroke-linecap="round" stroke-linejoin="round"/>
<path d="M53.9167 22.1479V38.5214H70.1667" stroke="#AB978A" stroke-width="2" stroke-linecap="round" stroke-linejoin="round"/>
<path d="M59.3333 52.166H37.6667" stroke="#AB978A" stroke-width="2" stroke-linecap="round" stroke-linejoin="round"/>
<path d="M59.3333 63.0815H37.6667" stroke="#AB978A" stroke-width="2" stroke-linecap="round" stroke-linejoin="round"/>
<path d="M43.0833 41.25H40.375H37.6667" stroke="#AB978A" stroke-width="2" stroke-linecap="round" stroke-linejoin="round"/>
</svg>
